<svg xmlns="http://www.w3.org/2000/svg" xmlns:xlink="http://www.w3.org/1999/xlink" preserveAspectRatio="xMidYMid" width="42" height="42" viewBox="0 0 42 42">
  <defs>
    <style>
      .cls-1 {
        fill: #222;
        fill-rule: evenodd;
      }
    </style>
  </defs>
  <path d="M21.000,42.000 C9.402,42.000 -0.000,32.598 -0.000,21.000 C-0.000,9.402 9.402,-0.000 21.000,-0.000 C32.598,-0.000 42.000,9.402 42.000,21.000 C42.000,32.598 32.598,42.000 21.000,42.000 ZM21.000,2.625 C10.868,2.625 2.625,10.868 2.625,21.000 C2.625,31.132 10.868,39.416 21.000,39.416 C31.132,39.416 39.375,31.132 39.375,21.000 C39.375,10.868 31.132,2.625 21.000,2.625 ZM29.293,26.259 L20.906,26.259 L20.312,26.259 L20.000,26.259 C19.604,26.259 19.232,26.413 18.951,26.693 L15.034,30.477 C14.704,30.806 14.257,30.991 13.782,30.991 C13.308,30.991 12.861,30.806 12.523,30.469 C12.185,30.130 12.000,29.683 12.000,29.210 L12.000,27.446 L12.000,13.641 C12.000,12.741 12.766,12.008 13.707,12.008 L29.293,12.008 C30.234,12.008 31.000,12.741 31.000,13.641 L31.000,24.626 C31.000,25.526 30.234,26.259 29.293,26.259 ZM16.750,20.321 C16.094,20.321 15.562,20.853 15.562,21.509 C15.562,22.164 16.094,22.696 16.750,22.696 C17.406,22.696 17.937,22.164 17.937,21.509 C17.937,20.853 17.406,20.321 16.750,20.321 ZM21.500,20.321 C20.844,20.321 20.312,20.853 20.312,21.509 C20.312,22.164 20.844,22.696 21.500,22.696 C22.156,22.696 22.687,22.164 22.687,21.509 C22.687,20.853 22.156,20.321 21.500,20.321 ZM26.250,20.321 C25.594,20.321 25.062,20.853 25.062,21.509 C25.062,22.164 25.594,22.696 26.250,22.696 C26.906,22.696 27.437,22.164 27.437,21.509 C27.437,20.853 26.906,20.321 26.250,20.321 Z" class="cls-1"/>
</svg>
