<svg xmlns="http://www.w3.org/2000/svg" xmlns:xlink="http://www.w3.org/1999/xlink" preserveAspectRatio="xMidYMid" width="42" height="42" viewBox="0 0 42 42">
  <defs>
    <style>
      .cls-1 {
        fill: #222;
        fill-rule: evenodd;
      }
    </style>
  </defs>
  <path d="M21.000,42.000 C9.402,42.000 -0.000,32.598 -0.000,21.000 C-0.000,9.402 9.402,-0.000 21.000,-0.000 C32.598,-0.000 42.000,9.402 42.000,21.000 C42.000,32.598 32.598,42.000 21.000,42.000 ZM21.000,2.625 C10.868,2.625 2.625,10.868 2.625,21.000 C2.625,31.132 10.868,39.416 21.000,39.416 C31.132,39.416 39.375,31.132 39.375,21.000 C39.375,10.868 31.132,2.625 21.000,2.625 ZM28.424,28.424 C27.912,28.937 27.081,28.937 26.568,28.424 L21.000,22.856 L15.431,28.424 C14.919,28.937 14.088,28.937 13.575,28.424 C13.063,27.912 13.063,27.081 13.575,26.568 L19.144,21.000 L13.575,15.431 C13.063,14.919 13.063,14.088 13.575,13.575 C14.088,13.063 14.919,13.063 15.431,13.575 L21.000,19.144 L26.568,13.575 C27.081,13.063 27.912,13.063 28.424,13.575 C28.937,14.088 28.937,14.919 28.424,15.431 L22.856,21.000 L28.424,26.568 C28.937,27.081 28.937,27.912 28.424,28.424 Z" class="cls-1"/>
</svg>
