<svg xmlns="http://www.w3.org/2000/svg" xmlns:xlink="http://www.w3.org/1999/xlink" preserveAspectRatio="xMidYMid" width="42" height="42" viewBox="0 0 42 42">
  <defs>
    <style>
      .cls-1 {
        fill: #222;
        fill-rule: evenodd;
      }
    </style>
  </defs>
  <path d="M21.000,42.000 C9.402,42.000 -0.000,32.598 -0.000,21.000 C-0.000,9.402 9.402,-0.000 21.000,-0.000 C32.598,-0.000 42.000,9.402 42.000,21.000 C42.000,32.598 32.598,42.000 21.000,42.000 ZM21.000,2.625 C10.868,2.625 2.625,10.868 2.625,21.000 C2.625,31.132 10.868,39.416 21.000,39.416 C31.132,39.416 39.375,31.132 39.375,21.000 C39.375,10.868 31.132,2.625 21.000,2.625 ZM15.621,22.225 L24.647,13.125 L28.875,17.387 L19.848,26.487 L15.621,22.225 ZM13.136,28.891 L14.461,23.515 L18.564,27.651 L13.136,28.891 Z" class="cls-1"/>
</svg>
