<svg xmlns="http://www.w3.org/2000/svg" xmlns:xlink="http://www.w3.org/1999/xlink" preserveAspectRatio="xMidYMid" width="24" height="24" viewBox="0 0 24 24">
  <defs>
    <style>
      .cls-1 {
        fill: #fff;
        fill-rule: evenodd;
      }
    </style>
  </defs>
  <path d="M12.000,24.000 C5.383,24.000 -0.000,18.617 -0.000,12.000 C-0.000,5.383 5.383,-0.000 12.000,-0.000 C18.617,-0.000 24.000,5.383 24.000,12.000 C24.000,18.617 18.617,24.000 12.000,24.000 ZM12.000,1.500 C6.210,1.500 1.500,6.210 1.500,12.000 C1.500,17.790 6.210,22.500 12.000,22.500 C17.790,22.500 22.500,17.790 22.500,12.000 C22.500,6.210 17.790,1.500 12.000,1.500 ZM17.000,13.000 L13.000,13.000 L13.000,17.000 C13.000,17.552 12.552,18.000 12.000,18.000 C11.448,18.000 11.000,17.552 11.000,17.000 L11.000,13.000 L7.000,13.000 C6.448,13.000 6.000,12.552 6.000,12.000 C6.000,11.448 6.448,11.000 7.000,11.000 L11.000,11.000 L11.000,7.000 C11.000,6.448 11.448,6.000 12.000,6.000 C12.552,6.000 13.000,6.448 13.000,7.000 L13.000,11.000 L17.000,11.000 C17.552,11.000 18.000,11.448 18.000,12.000 C18.000,12.552 17.552,13.000 17.000,13.000 Z" class="cls-1"/>
</svg>
