<svg xmlns="http://www.w3.org/2000/svg" xmlns:xlink="http://www.w3.org/1999/xlink" preserveAspectRatio="xMidYMid" width="24" height="24" viewBox="0 0 24 24">
  <defs>
    <style>
      .cls-1 {
        fill: #fff;
        fill-rule: evenodd;
      }
    </style>
  </defs>
  <path d="M12.000,24.000 C5.383,24.000 -0.000,18.617 -0.000,12.000 C-0.000,5.383 5.383,-0.000 12.000,-0.000 C18.617,-0.000 24.000,5.383 24.000,12.000 C24.000,18.617 18.617,24.000 12.000,24.000 ZM12.000,1.500 C6.210,1.500 1.500,6.210 1.500,12.000 C1.500,17.790 6.210,22.500 12.000,22.500 C17.790,22.500 22.500,17.790 22.500,12.000 C22.500,6.210 17.790,1.500 12.000,1.500 ZM16.500,17.432 C16.308,17.432 16.116,17.359 15.970,17.212 L12.841,14.084 C12.581,14.189 12.297,14.250 12.000,14.250 C10.759,14.250 9.750,13.241 9.750,12.000 C9.750,11.024 10.379,10.199 11.250,9.888 L11.250,3.750 C11.250,3.336 11.585,3.000 12.000,3.000 C12.414,3.000 12.750,3.336 12.750,3.750 L12.750,9.888 C13.621,10.199 14.250,11.024 14.250,12.000 C14.250,12.394 14.139,12.759 13.960,13.082 L17.030,16.152 C17.323,16.445 17.323,16.919 17.030,17.212 C16.884,17.359 16.692,17.432 16.500,17.432 ZM12.000,11.250 C11.586,11.250 11.250,11.587 11.250,12.000 C11.250,12.413 11.586,12.750 12.000,12.750 C12.414,12.750 12.750,12.413 12.750,12.000 C12.750,11.587 12.414,11.250 12.000,11.250 Z" class="cls-1"/>
</svg>
