<?xml version="1.0" encoding="utf-8"?>
<!-- Generator: Adobe Illustrator 16.0.0, SVG Export Plug-In . SVG Version: 6.00 Build 0)  -->
<!DOCTYPE svg PUBLIC "-//W3C//DTD SVG 1.1//EN" "http://www.w3.org/Graphics/SVG/1.1/DTD/svg11.dtd">
<svg version="1.1" id="Layer_1" xmlns="http://www.w3.org/2000/svg" xmlns:xlink="http://www.w3.org/1999/xlink" x="0px" y="0px"
	 width="1200px" height="600px" viewBox="0 0 1200 600" enable-background="new 0 0 1200 600" xml:space="preserve">
<g>
	<g>
		<path fill="#94368F" d="M434.983,204.297c-36.566-9.798-74.024,11.828-83.822,48.396c-9.788,36.529,11.828,74.024,48.395,83.822
			l3.873,1.038l-7.285,27.188c42.917-7.671,77.863-41.648,87.234-76.622C493.176,251.553,471.513,214.085,434.983,204.297
			L434.983,204.297z"/>
		<g>
			<path fill="#EEABCC" d="M398.712,258.979c-1.614-12.852,2.926-25.983,12.657-35.117c10.221-3.979,25.403-0.114,33.247,7.479
				C425.56,229.216,398.712,258.979,398.712,258.979L398.712,258.979z M416.911,248.468c0,0,39.662,8.273,47.436,25.628
				c2.686-10.462-1.605-25.367-10.259-32.151C441.156,238.126,427.358,240.731,416.911,248.468L416.911,248.468z M435.326,258.854
				c0,0,12.814,38.035,1.538,53.27c10.531-2.876,21.417-13.92,22.974-24.678C456.653,274.491,447.392,263.974,435.326,258.854
				L435.326,258.854z M389.646,307.388c7.842,7.593,23.024,11.457,33.238,7.476c9.744-9.129,14.277-22.263,12.658-35.118
				C435.543,279.745,408.701,309.512,389.646,307.388L389.646,307.388z M417.344,290.258c0,0-39.655-8.271-47.429-25.633
				c-2.687,10.471,1.604,25.375,10.266,32.153C393.105,300.603,406.903,297.997,417.344,290.258L417.344,290.258z M398.935,279.874
				c0,0-12.813-38.037-1.537-53.27c-10.53,2.875-21.415,13.918-22.98,24.674C377.611,264.229,386.869,274.756,398.935,279.874
				L398.935,279.874z M466.483,283.135"/>
		</g>
	</g>
	<g>
		<path fill="#55575A" d="M551.881,268.679c-1.28,0-2.56-0.48-3.6-1.68c2.16-1.28,3.6-4.24,3.6-6.88c0-2.8-1.6-5.36-5.84-5.36
			c-4.4,0-7.44,2.56-7.44,6.96c0,12.561,18,13.28,18,31.121c0,11.28-8.32,18.561-21.201,18.561c-6.4,0-17.68-1.36-17.68-12.881
			c0-7.52,5.6-11.52,11.76-11.52c3.6,0,5.84,1.2,6.48,4.08c-6.48,0.56-9.36,3.28-9.36,8.8c0,5.36,4.16,7.681,7.92,7.681
			c6.32,0,8.8-5.521,8.8-11.441c0-15.041-17.281-18.32-17.281-30.241c0-8.4,9.521-14.88,19.041-14.88c4.24,0,13.44,0.64,13.44,9.6
			C558.521,265.159,556.041,268.679,551.881,268.679z"/>
		<path fill="#55575A" d="M580.92,258.359c0,0-1.2,5.44-2.72,12.64h4.8l-0.64,3.2h-4.8c-5.52,25.28-5.44,26.081-5.44,26.48
			c0,1.84,0.8,3.04,4,3.04c3.2,0,7.36-4.48,10.56-7.04h2.72c-3.68,3.68-12.72,14.32-18.96,14.32c-6.16,0-9.92-2.721-9.92-8.721
			c0-4.24,4.16-21.2,5.52-28.08h-2.64l0.64-3.2h2.64l2.4-11.04L580.92,258.359z"/>
		<path fill="#55575A" d="M620.84,270.999l-5.76,27.201c-0.16,0.88-0.32,1.76-0.32,2.48c0,1.76,0.8,3.04,4,3.04
			s7.36-4.48,10.56-7.04h2.72c-3.68,3.68-12.72,14.32-18.96,14.32c-5.2,0-8.72-1.92-9.76-6.08c-2.4,3.279-6,6.561-10.88,6.561
			c-7.68,0-9.92-5.44-9.92-10.16c0-13.761,4.96-30.241,20.96-30.241c1.92,0,3.92,0.8,5.36,2l0.48-2.08H620.84z M593.319,299.16
			c0,4.8,2.64,5.68,4.64,5.68c1.84,0,3.6-1.76,5.12-4c0.08-0.8,0.24-1.68,0.48-2.64l4.48-21.201c-1.28-1.12-2.8-1.44-3.92-1.44
			C598.119,275.559,593.319,288.279,593.319,299.16z"/>
		<path fill="#55575A" d="M644.598,258.359c0,0-1.2,5.44-2.72,12.64h4.8l-0.64,3.2h-4.8c-5.52,25.28-5.44,26.081-5.44,26.48
			c0,1.84,0.8,3.04,4,3.04c3.2,0,7.36-4.48,10.56-7.04h2.72c-3.68,3.68-12.72,14.32-18.96,14.32c-6.16,0-9.92-2.721-9.92-8.721
			c0-4.24,4.16-21.2,5.52-28.08h-2.64l0.64-3.2h2.64l2.4-11.04L644.598,258.359z"/>
		<path fill="#55575A" d="M685.638,270.999l-5.76,27.201c-0.16,0.88-0.32,1.76-0.32,2.48c0,1.76,0.8,3.04,4,3.04
			s7.36-4.48,10.56-7.04h2.72c-3.68,3.68-12.72,14.32-18.96,14.32c-5.44,0-9.12-2.08-9.84-6.721c-3.76,3.521-8.08,6.721-11.52,6.721
			c-6.16,0-10-2.721-10-8.721c0-1.199,0.16-2.56,0.48-4.08l5.76-27.201h11.521l-5.76,27.201c-0.16,0.88-0.32,1.76-0.32,2.48
			c0,1.76,0.8,3.04,4,3.04c1.68,0,3.68-1.28,5.68-2.88c0.08-0.8,0.24-1.68,0.48-2.64l5.76-27.201H685.638z"/>
		<path fill="#55575A" d="M711.558,269.399v1.12c0,13.2,5.44,17.2,5.44,26.561c0,0.56,0,1.12-0.08,1.68c2.24-2,4.24-4.08,5.2-5.2
			l2.08,2.72c-2.24,1.76-5.44,4.56-8.64,7.281c-2.08,4.399-6.64,7.439-14.08,7.439c-9.2,0-13.681-2.641-13.681-10.48
			c0-6.4,2.88-10.08,6.081-10.32c2.88-5.2,4.72-12.32,6.08-18.4L711.558,269.399z M694.757,300.2c-0.96,0-1.92-0.24-2.88-0.72
			c0,4.72,2.56,6.8,6.8,6.8c2.72,0,6.64-3.359,6.64-9.52c0-4.96-3.6-9.2-3.76-19.201c-1.28,3.92-2.4,9.041-4.16,13.041
			c1.92,0.64,2.64,2.08,2.64,4.48C700.037,298.12,697.557,300.2,694.757,300.2z"/>
		<path fill="#55575A" d="M753.397,298.2c-0.24,0.88-0.4,1.76-0.4,2.56c0,1.76,0.88,2.96,4,2.96c3.2,0,4.4-2.479,7.6-5.04h2.72
			c-3.68,3.68-9.76,12.32-16,12.32s-9.92-2.721-9.92-8.721c0-1.279,0.16-2.56,0.48-4.08l3.04-14.4c0.16-0.72,0.24-1.44,0.24-2.08
			c0-2.88-1.52-4.72-3.68-4.72c-1.92,0-3.36,0.56-5.04,1.68l-6.8,32.321h-11.52l8.48-40.001h11.521l-0.96,4.32
			c3.28-2.4,6.96-4.32,10.48-4.32c4.32,0,9.2,4.64,9.2,10c0,0.64,0,1.28-0.16,1.92L753.397,298.2z"/>
		<path fill="#55575A" d="M798.916,270.999l-5.76,27.201c-0.16,0.88-0.32,1.76-0.32,2.48c0,1.76,0.8,3.04,4,3.04
			s7.36-4.48,10.56-7.04h2.72c-3.68,3.68-12.72,14.32-18.96,14.32c-5.2,0-8.72-1.92-9.76-6.08c-2.4,3.279-6,6.561-10.88,6.561
			c-7.68,0-9.92-5.44-9.92-10.16c0-13.761,4.96-30.241,20.96-30.241c1.92,0,3.92,0.8,5.36,2l0.48-2.08H798.916z M771.396,299.16
			c0,4.8,2.64,5.68,4.64,5.68c1.84,0,3.6-1.76,5.12-4c0.08-0.8,0.24-1.68,0.48-2.64l4.48-21.201c-1.28-1.12-2.8-1.44-3.92-1.44
			C776.195,275.559,771.396,288.279,771.396,299.16z"/>
		<path fill="#55575A" d="M818.835,270.999l-0.32,1.52c1.68-0.88,3.6-1.44,5.6-1.44c8.32,0,12.24,2.96,12.24,11.2
			c0,1.68-0.16,3.52-0.48,5.6c-2.48,17.201-9.36,23.041-17.52,23.041c-2.64,0-5.12-0.88-7.521-2.4l-4.16,19.602L794.594,331
			l12.72-60.001H818.835z M825.635,288.839c0.72-3.52,1.04-6.16,1.04-8.08c0-4.8-1.92-5.76-4.48-5.76c-1.52,0-3.04,0.64-4.56,1.68
			l-5.76,26.881c1.92,1.439,3.92,1.439,5.2,1.439C821.075,305,822.995,301.56,825.635,288.839z"/>
	</g>
</g>
<g>
	<path display="none" d="M1637.627,218.698c-37.856,0-68.44,30.584-68.44,68.441c0,37.818,30.584,68.441,68.44,68.441h4.01v28.147
		c39.469-18.517,64.432-60.382,64.432-96.589C1706.068,249.282,1675.445,218.698,1637.627,218.698z M1687.411,279.229
		c-12.815-15.753-56.011-13.324-56.011-13.324c8.637-10.868,22.149-17.368,36.543-17.004
		C1678.744,253.506,1687.29,267.695,1687.411,279.229z M1618.883,242.057c9.443-6.929,26.172-7.139,36.36-1.475
		c-20.243,3.075-39.71,41.195-39.71,41.195C1610.316,268.966,1611.369,254.168,1618.883,242.057z M1605.229,248.747
		c-7.42,18.828,16.309,54.521,16.309,54.521c-13.859-1.945-26.318-10.243-33.191-22.719
		C1586.986,269.022,1595.162,254.623,1605.229,248.747z M1587.391,295.559c12.816,15.761,56.005,13.332,56.005,13.332
		c-8.63,10.868-22.142,17.369-36.53,16.997C1596.059,321.289,1587.514,307.102,1587.391,295.559z M1655.912,332.739
		c-9.436,6.93-26.164,7.14-36.352,1.475c20.242-3.075,39.702-41.196,39.702-41.196
		C1664.486,305.83,1663.439,320.629,1655.912,332.739z M1669.573,326.05c7.421-18.83-16.309-54.521-16.309-54.521
		c13.86,1.945,26.319,10.234,33.187,22.717C1687.816,305.773,1679.641,320.173,1669.573,326.05z"/>
</g>
</svg>
